<svg class="scale-icon" width="14" height="10" viewBox="0 0 14 10" fill="none" xmlns="http://www.w3.org/2000/svg"><path fill-rule="evenodd" clip-rule="evenodd" d="M2.41785 0.588867H7.00001H11.5822L13.8732 3.38202L7.226 9.3249C7.09746 9.43983 6.90256 9.43983 6.77402 9.3249L0.12677 3.38202L2.41785 0.588867Z" fill="#F370B4"></path><path fill-rule="evenodd" clip-rule="evenodd" d="M2.57833 0.588867H7.00001H11.4217C11.5232 0.588867 11.6194 0.634296 11.6837 0.712601L13.8732 3.38202H0.12677L2.31636 0.712601C2.38059 0.634296 2.47677 0.588867 2.57833 0.588867Z" fill="#FABADB"></path><path fill-rule="evenodd" clip-rule="evenodd" d="M2.41785 0.588867H7.00001L4.70893 3.38202L2.41785 0.588867Z" fill="#FEF4F9"></path><path fill-rule="evenodd" clip-rule="evenodd" d="M7 0.588867H11.5822L9.29108 3.38202L7 0.588867Z" fill="#FEF4F9"></path><path fill-rule="evenodd" clip-rule="evenodd" d="M4.70892 3.38208H9.29108L7 9.2477L4.70892 3.38208Z" fill="#F58AC1"></path></svg>