<?xml version="1.0" encoding="UTF-8"?>
<svg id="Layer_2" data-name="Layer 2" xmlns="http://www.w3.org/2000/svg" width="1188.0631" height="315.1567" viewBox="0 0 1188.0631 315.1567">
  <defs>
    <style>
      .cls-1 {
        fill: #fff;
      }
    </style>
  </defs>
  <g id="Layer_1-2" data-name="Layer 1">
    <g>
      <path class="cls-1" d="M832.4375,33.513h-14.5891v80.642h14.5891V33.513ZM622.2644,33.513h-14.589v80.642h14.589V33.513ZM372.3264,33.513h-14.572v80.642h14.572V33.513ZM356.6305,17.155h16.833V0h-16.833v17.155ZM453.6214,114.146h14.576v-48.393c0-6.949-1.256-12.988-3.767-18.118-2.512-5.13-6.038-9.09-10.58-11.878-4.548-2.777-9.758-4.167-15.632-4.17-5.874-.003-11.08,1.488-15.619,4.471-4.5421,2.995-8.123,7.404-10.741,13.227-.657,1.46-1.224,2.959-1.697,4.488v-20.26h-14.08v80.642h14.585v-43.774c0-5.88,1.069-10.829,3.207-14.848,2.138-4.018,4.966-7.064,8.484-9.137,3.492-2.075,7.485-3.156,11.547-3.126,6.088,0,10.896,2.003,14.423,6.011,3.526,4.007,5.29,9.752,5.29,17.235l.004,47.63ZM521.2694,114.307h6.741v-11.381h-5.137c-6.31,0-10.906-1.336-13.787-4.009-2.882-2.672-4.324-7.108-4.327-13.307v-41.522h23.0811v-10.575h-22.907V12.023h-14.423v21.49h-11.564v10.605h11.543v40.558c0,10.049,2.592,17.503,7.775,22.365,5.184,4.861,12.853,7.293,23.005,7.296M590.5254,46.171h4.509v-13.787h-2.587c-11.219,0-19.876,3.848-25.97,11.543-3.445,4.348-5.875,9.723-7.373,16.052v-26.466h-14.126v80.642h14.588v-36.724c0-10.792,2.806-18.7,8.417-23.726,5.611-5.025,13.119-7.537,22.525-7.534M606.5395,17.155h16.832V.001h-16.815l-.017,17.154ZM703.5424,114.146h14.589v-48.393c0-6.949-1.256-12.988-3.767-18.118-2.512-5.13-6.038-9.09-10.58-11.878-4.545-2.777-9.755-4.167-15.632-4.17-5.877-.003-11.086,1.488-15.628,4.471-4.542,2.995-8.123,7.404-10.745,13.227-.655,1.46-1.222,2.959-1.697,4.488v-20.26h-14.092v80.642h14.589v-43.774c0-5.88,1.069-10.829,3.207-14.848,2.1381-4.018,4.9661-7.064,8.484-9.137,3.494-2.076,7.49-3.158,11.5551-3.126,6.092,0,10.899,2.003,14.423,6.011,3.524,4.007,5.287,9.752,5.29,17.235l.004,47.63ZM749.2345,54.507c0-3.631,1.555-6.601,4.666-8.909,3.111-2.307,7.2791-3.457,12.505-3.448,5.45,0,9.8051,1.309,13.066,3.928,3.262,2.618,4.946,6.226,5.052,10.821h13.626c-.217-7.918-3.131-14.117-8.735-18.597-5.603-4.479-13.282-6.719-23.03-6.719-9.293,0-16.774,2.165-22.445,6.494-5.67,4.33-8.501,10.02-8.492,17.07,0,6.089,1.98,10.978,5.939,14.665,3.959,3.688,9.615,6.068,16.968,7.14l11.878,1.926c5.557.848,9.539,2.21,11.945,4.085s3.61,4.574,3.606,8.098c0,4.383-1.6541,7.856-4.967,10.418-3.312,2.562-7.748,3.845-13.308,3.848-6.091,0-10.927-1.414-14.507-4.242-3.581-2.828-5.371-6.703-5.371-11.624h-14.109c.212,8.337,3.285,14.856,9.218,19.556,5.933,4.701,14.1901,7.052,24.769,7.055,6.411,0,12.049-1.068,16.913-3.203,4.866-2.135,8.6331-5.128,11.301-8.98,2.673-3.847,4.009-8.281,4.009-13.303,0-6.629-2.057-11.68-6.172-15.153-4.1151-3.473-10.499-5.905-19.157-7.296l-11.704-1.922c-4.596-.747-7.989-2.029-10.181-3.848-2.192-1.818-3.2859-4.437-3.283-7.856M816.7254,17.16h16.833V.001h-16.833v17.159ZM911.1494,62.851h13.948c-1.8199-9.728-5.778-17.371-11.8781-22.928-6.1-5.558-14.168-8.337-24.2089-8.34-7.806,0-14.674,1.763-20.6,5.29-5.926,3.523-10.715,8.677-13.791,14.847-3.258,6.36-4.887,13.761-4.887,22.203,0,8.334,1.629,15.687,4.887,22.059,3.076,6.171,7.861,11.326,13.791,14.847,5.939,3.529,12.807,5.293,20.6,5.29,10.045,0,18.113-2.779,24.205-8.336,6.0909-5.557,10.049-13.252,11.8779-23.085h-13.948c-1.4979,6.521-4.0089,11.491-7.5339,14.911-3.525,3.419-8.442,5.128-14.7501,5.128-4.5049.06-8.921-1.255-12.662-3.767-3.746-2.511-6.656-6.091-8.739-10.741-2.0829-4.649-3.1219-10.073-3.126-16.272,0-6.304,1.043-11.782,3.126-16.434,2.083-4.652,4.997-8.233,8.739-10.741,3.741-2.51,8.157-3.824,12.662-3.767,6.304,0,11.22,1.711,14.7501,5.133,3.5289,3.422,6.041,8.339,7.5339,14.75"/>
      <rect class="cls-1" x="357.7559" y="196.9988" width="14.588" height="80.637"/>
      <rect class="cls-1" x="356.6299" y="163.4938" width="16.833" height="17.155"/>
      <rect class="cls-1" x="707.7969" y="196.9988" width="14.589" height="80.637"/>
      <rect class="cls-1" x="706.6729" y="163.4938" width="16.833" height="17.155"/>
      <path class="cls-1" d="M453.6217,277.6392h14.588v-48.415c0-6.944-1.259-12.985-3.767-18.118-2.511-5.128-6.04-9.082-10.579-11.86-4.543-2.779-9.753-4.17-15.632-4.17s-11.089,1.497-15.632,4.488c-4.543,2.99-8.124,7.402-10.741,13.227-.641,1.425-1.201,2.922-1.684,4.488v-20.282h-14.1089v80.638h14.588v-43.766c0-5.875,1.069-10.821,3.207-14.83s4.968-7.054,8.497-9.137c3.525-2.083,7.373-3.127,11.543-3.127,6.091,0,10.897,2.003,14.427,6.011,3.525,4.009,5.29,9.757,5.29,17.236v47.613l.004.004Z"/>
      <path class="cls-1" d="M990.616,277.6392h14.589v-48.415c0-6.944-1.26-12.985-3.767-18.118-2.512-5.128-6.041-9.082-10.5801-11.86-4.543-2.779-9.7529-4.17-15.632-4.17s-11.089,1.497-15.632,4.488c-4.543,2.99-8.124,7.402-10.741,13.227-.6411,1.425-1.201,2.922-1.6841,4.488v-20.282h-14.109v80.638h14.588v-43.766c0-5.875,1.069-10.821,3.207-14.83,2.1379-4.009,4.968-7.054,8.4969-9.137,3.525-2.083,7.373-3.127,11.5431-3.127,6.0909,0,10.8979,2.003,14.427,6.011,3.5249,4.009,5.2899,9.757,5.2899,17.236v47.613l.004.004Z"/>
      <path class="cls-1" d="M521.2695,277.7965h6.732v-11.381h-5.128c-6.308,0-10.903-1.337-13.787-4.009-2.889-2.673-4.327-7.106-4.327-13.308v-41.521h23.085v-10.58h-22.924v-21.481h-14.427v21.481h-11.543v10.58h11.543v40.558c0,10.046,2.588,17.503,7.776,22.365,5.183,4.865,12.849,7.296,23.004,7.296"/>
      <path class="cls-1" d="M537.7538,236.98c0-24.829,16.273-42.777,38.416-42.777,24.154,0,37.411,16.943,37.411,42.942v2.851h-61.396c.336,18.453,11.072,29.02,24.995,29.02,9.896,0,19.293-3.86,21.303-16.273h14.258c-1.676,14.258-12.747,27.51-35.731,27.51-24.1541,0-39.256-15.267-39.256-43.282v.009ZM598.1438,229.764c0-14.427-7.886-24.154-21.974-24.154s-22.479,10.567-23.484,24.154h45.462-.004Z"/>
      <rect class="cls-1" x="631.8219" y="162.0478" width="14.427" height="115.694"/>
      <rect class="cls-1" x="669.8859" y="162.0478" width="14.427" height="115.694"/>
      <path class="cls-1" d="M744.9665,285.4577h14.258c0,10.903,8.051,18.453,21.138,18.453,15.097,0,24.324-7.886,24.324-25.163v-21.631c-4.319,11.204-12.175,19.785-26.504,19.785-22.309,0-36.737-16.103-36.737-41.097s15.938-41.602,37.242-41.602c15.597,0,22.423,12.336,25.999,19.526v-16.841h14.427v76.833c0,27.679-13.083,41.436-38.916,41.436-21.304,0-35.226-11.912-35.226-29.69l-.005-.009ZM781.0325,265.6647c14.427,0,24.659-11.912,24.659-29.86s-10.232-30.195-24.659-30.195-24.659,12.247-24.659,30.195,10.067,29.86,24.659,29.86"/>
      <path class="cls-1" d="M838.555,236.98c0-24.829,16.273-42.777,38.416-42.777,24.1591,0,37.411,16.943,37.411,42.942v2.851h-61.396c.336,18.453,11.072,29.02,24.995,29.02,9.896,0,19.293-3.86,21.303-16.273h14.2581c-1.676,14.258-12.7471,27.51-35.731,27.51-24.1541,0-39.252-15.267-39.252-43.282l-.004.009ZM898.945,229.764c0-14.427-7.886-24.154-21.974-24.154s-22.479,10.567-23.484,24.154h45.462-.004Z"/>
      <path class="cls-1" d="M1112.2361,236.98c0-24.829,16.2731-42.777,38.416-42.777,24.1591,0,37.411,16.943,37.411,42.942v2.851h-61.395c.335,18.453,11.071,29.02,24.994,29.02,9.896,0,19.293-3.86,21.303-16.273h14.2581c-1.676,14.258-12.7471,27.51-35.7311,27.51-24.1539,0-39.252-15.267-39.252-43.282l-.004.009ZM1172.6261,229.764c0-14.427-7.886-24.154-21.974-24.154s-22.479,10.567-23.484,24.154h45.462-.004Z"/>
      <path class="cls-1" d="M1083.2204,227.036h13.948c-1.8199-9.723-5.769-17.367-11.861-22.924-6.092-5.557-14.1641-8.336-24.209-8.336-7.802,0-14.67,1.765-20.6001,5.29-5.9299,3.529-10.5289,8.476-13.791,14.83-3.262,6.359-4.887,13.762-4.887,22.203s1.629,15.687,4.887,22.042c3.2621,6.359,7.8571,11.305,13.791,14.83,5.9301,3.526,12.7981,5.29,20.6001,5.29,10.0449,0,18.1169-2.778,24.209-8.335,6.0919-5.558,10.0449-13.253,11.861-23.086h-13.948c-1.4969,6.52-4.009,11.488-7.5341,14.907-3.5249,3.423-8.4459,5.133-14.75,5.133-4.704,0-8.9249-1.256-12.662-3.767-3.746-2.512-6.656-6.092-8.739-10.741-2.0829-4.649-3.126-10.075-3.126-16.273s1.0391-11.784,3.126-16.433c2.083-4.65,4.993-8.23,8.739-10.741,3.7411-2.512,7.962-3.767,12.662-3.767,6.3041,0,11.2251,1.709,14.75,5.128,3.525,3.424,6.0371,8.336,7.5341,14.75"/>
      <polygon class="cls-1" points="0 .7633 0 45.8573 .014 45.8573 41.236 45.8573 41.236 13.8173 272.572 13.8173 272.572 273.3353 38.486 273.3353 38.486 85.9013 2.764 85.9013 2.764 286.3883 285.625 286.3883 285.625 .7633 0 .7633"/>
    </g>
  </g>
</svg>