<?xml version="1.0" encoding="UTF-8"?>
<svg xmlns="http://www.w3.org/2000/svg" width="184.2519" height="53.9967" viewBox="0 0 184.2519 53.9967">
  <defs>
    <style>
      .cls-1 {
        fill: #3c3c3b;
      }

      .cls-2 {
        isolation: isolate;
      }

      .cls-3 {
        fill: #007dc4;
      }

      .cls-4 {
        fill: #9d9d9c;
        mix-blend-mode: multiply;
      }

      .cls-5 {
        fill: #08406e;
      }
    </style>
  </defs>
  <g class="cls-2">
    <g id="Layer_2" data-name="Layer 2">
      <g id="_Ebene_" data-name="&amp;lt;Ebene&amp;gt;">
        <path id="RHEINMETALL" class="cls-1" d="M37.7983,41.3297h-1.9287c-.3731,0-.6045-.208-.6045-.6982v-13.0859c0-1.7657.6499-2.6504,2.5796-2.6504h1.7651c2.2788,0,3.8369.2109,4.7202.5586,1.7657.7207,2.3711,2.3476,2.3711,4.3457,0,2-.6753,3.6738-2.6274,4.4863l3.1621,5.7187c.1387.2559.3242.5586.3242.8379,0,.2324-.1616.3946-.3472.418-.2094.0469-1.8378.1152-2.3256.1152-.418,0-.6499-.209-.8135-.5332l-3.0449-5.9746c-.3946.0235-.8145.0235-1.2779.0235h-1.2788v5.7402c0,.4668-.2793.6982-.6738.6982ZM39.8437,32.3346c.999,0,1.8125-.0928,2.3481-.2793.7437-.2793,1.2085-1.0449,1.2085-2.0918,0-1.2324-.3725-1.9062-1.1626-2.1855-.4648-.1621-1.1855-.209-2.0922-.209h-.9068c-.5581,0-.7666.2558-.7666.7676v3.998h1.3716ZM52.582,41.3297h-1.9512c-.3725,0-.6045-.208-.6045-.6982v-15.0625c0-.418.1856-.6973.627-.6973h1.9995c.4409,0,.5806.2578.5806.6758v5.8574h6.3691v-5.8359c0-.418.1855-.6973.6523-.6973h1.9742c.4419,0,.5805.2578.5805.6758v15.084c0,.4433-.2544.6982-.6499.6982h-1.9297c-.3715,0-.6274-.208-.6274-.6982v-6.4141h-6.3691v6.4141c0,.4433-.2559.6982-.6514.6982ZM69.1098,41.3073c-1.6274,0-2.4873-.6504-2.4873-2.4873v-11.3662c0-1.7442.7905-2.5586,2.4873-2.5586h6.9722c.4429,0,.6518.1406.6518.6289v1.6269c0,.3946-.2089.5352-.6518.5352h-5.5078c-.4883,0-.7442.2558-.7442.8594v2.8593h5.6719c.4185,0,.6499.1387.6499.627v1.6279c0,.3955-.2314.5576-.6499.5576h-5.6719v3.3926c0,.6279.2329.9072.8833.9072h5.7657c.4174,0,.6503.1162.6503.627v1.6045c0,.3965-.2104.5586-.6503.5586h-7.3692ZM82.747,41.3297h-1.9516c-.3726,0-.604-.208-.604-.6982v-15.0625c0-.418.1855-.6973.6274-.6973h1.9985c.4419,0,.5816.2578.5816.6758v15.084c0,.4433-.2554.6982-.6519.6982ZM89.8681,41.3297h-1.8598c-.3716,0-.6041-.208-.6041-.6982v-13.6426c0-1.4648.5801-2.1855,2.1377-2.1855h.8833c1.3248,0,1.6285.58,2.0923,1.5566,3.7412,7.6719,4.4151,9.2295,5.1358,10.9727-.0694-2.1153-.0694-4.1387-.0694-11.5996,0-.5118.2325-.8614.6983-.8614h1.7431c.4649,0,.627.3262.627.791v13.9942c0,1.5332-.8594,1.8125-1.8125,1.8125h-.7207c-1.3486,0-1.7441-.4649-2.3945-1.7891-4.1602-8.5078-4.5313-9.3916-5.2525-11.1113.0235,1.6035.0464,3.1836.0464,12.0625,0,.4433-.2554.6982-.6504.6982ZM107.1816,41.3297h-1.9756c-.3721,0-.5576-.2549-.5576-.6982v-13.4805c0-1.209.3008-2.3476,2.2783-2.3476h.6973c1.6269,0,1.7431.4179,2.5322,2.416,1.6045,4.1142,2.0703,5.3486,2.5342,6.7656.5107-1.4639.8838-2.6035,2.4873-6.8105.6504-1.7207.8828-2.3711,2.6504-2.3711h.789c1.8848,0,2,.9297,2,2.3476v13.4121c0,.5586-.2314.7666-.6513.7666h-1.9541c-.3701,0-.6026-.208-.6026-.7431,0-8.3682.0235-10.2276.0928-12.5293-.582,1.9062-1.0459,3.2763-3.208,8.9726-.3721.9756-.627,1.3711-1.4404,1.3711h-.3731c-.7666,0-1.1142-.3721-1.4404-1.2783-2.0684-5.5791-2.6025-7.0205-3.2998-9.0654.0693,2.3017.0693,4.3008.0693,12.5996,0,.3711-.1621.6728-.6279.6728ZM126.9179,41.3073c-1.6269,0-2.4873-.6504-2.4873-2.4873v-11.3662c0-1.7442.7901-2.5586,2.4873-2.5586h6.9727c.4414,0,.6504.1406.6504.6289v1.6269c0,.3946-.209.5352-.6504.5352h-5.5098c-.4883,0-.7432.2558-.7432.8594v2.8593h5.6719c.418,0,.6514.1387.6514.627v1.6279c0,.3955-.2334.5576-.6514.5576h-5.6719v3.3926c0,.6279.2315.9072.8838.9072h5.7637c.418,0,.6524.1162.6524.627v1.6045c0,.3965-.211.5586-.6524.5586h-7.3672ZM143.2353,41.3297h-1.9736c-.3741,0-.6289-.2314-.6289-.6982v-12.9453h-3.0088c-.4405,0-.6514-.1406-.6514-.5352v-1.6269c0-.4883.2109-.6289.6514-.6289h10.0254c.4404,0,.6523.1582.4931.6289l-.5722,1.6269c-.1221.3887-.3301.5352-.7735.5352h-2.9101v12.9453c0,.4668-.2783.6982-.6514.6982ZM150.3603,40.5866c-.1846.5586-.3242.789-.79.789-.4639,0-1.9981-.0459-2.3008-.1152-.2559-.0703-.3242-.2793-.3242-.4648,0-.209.0683-.4883.1621-.7442l4.5556-13.25c.4639-1.3476.8125-1.998,2.4873-1.998h.7442c1.5566,0,1.789.6054,2.2324,1.9297l4.4629,13.2714c.0918.2559.1621.5118.1621.7676,0,.1856-.0928.3945-.3047.4883-.2773.1152-1.625.1152-2.2998.1152-.4639,0-.6279-.2304-.8135-.789l-1.1845-3.5098h-5.6494l-1.1397,3.5098ZM156.4287,34.3581c-1.2793-4.0918-1.6748-5.3946-2.0459-6.7657-.3731,1.3477-.7901,2.6963-2.0928,6.7657h4.1387ZM166.1933,41.3073c-1.5801,0-2.4394-.6992-2.4394-2.3711v-13.3672c0-.418.1855-.6973.6259-.6973h1.9991c.4423,0,.582.2578.582.6758v12.1094c0,.5576.2324.8603.8594.8603h4.6601c.416,0,.6485.1162.6485.627v1.6045c0,.3965-.2325.5586-.6485.5586h-6.2871ZM177.3144,41.3073c-1.582,0-2.4414-.6992-2.4414-2.3711v-13.3672c0-.418.1855-.6973.627-.6973h2.0019c.4395,0,.5801.2578.5801.6758v12.1094c0,.5576.2324.8603.8574.8603h4.6602c.4199,0,.6523.1162.6523.627v1.6045c0,.3965-.2324.5586-.6523.5586h-6.2852Z"/>
        <path class="cls-3" d="M34.8271.048S3.227,14.1198,3.226,14.1198c-2.5908,1.1504-3.226,2.875-3.226,4.0918v31.5c0,.3242.3276.5898.6728.4404l16.395-7.2959c.9815-.4795,2.2774-1.5957,2.2774-3.8203v-17.4902l13.6963-6.1036c1.4204-.6718,2.4243-2.5371,2.4243-4.9995,0-.0049.0005-8.333.0005-9.9482,0-.3965-.2793-.5918-.6392-.4463Z"/>
        <path class="cls-5" d="M.6728,50.152l16.395-7.2959c.9815-.4795,2.2774-1.5957,2.2774-3.8203v-17.4902S3.2211,28.817,3.2221,28.817h.0005C.5463,30.0045.0268,31.778,0,33.0856v16.626c0,.3242.3276.5898.6728.4404Z"/>
        <path class="cls-4" d="M0,33.0856c.0268-1.3076.5463-3.0811,3.2226-4.2686h-.0005c-.001,0,16.1231-7.2714,16.1231-7.2714v2.8632L3.2226,30.401c-2.3994.9004-3.1958,2.6446-3.2226,3.9531v-1.2685Z"/>
        <g>
          <path class="cls-1" d="M38.413,53.862h-.6123c-.1718,0-.27-.1114-.27-.3067v-3.4316l-2.7319-4.3731c-.086-.1484-.1597-.2578-.1597-.3808,0-.086.0493-.1465.1348-.1836.0737-.0371.6128-.0371.8213-.0371.1836,0,.2695.0859.3921.2695,1.3964,2.2305,1.7763,2.8809,2.1562,3.5664.3799-.6855.7232-1.25,2.1445-3.5176.147-.2441.2325-.3183.4287-.3183.3306,0,.6373.0136.7227.0371.0981.0254.1348.0976.1348.1601,0,.0977-.0489.2071-.1348.3555l-2.7568,4.3984v3.4551c0,.1836-.0855.3067-.2696.3067Z"/>
          <path class="cls-1" d="M42.1977,53.5299c-.0732.2344-.1348.3438-.3306.3438-.1596,0-.6372-.0117-.7597-.0489-.1104-.0253-.1348-.1093-.1348-.1835,0-.1114.0488-.2325.0855-.3555l2.622-7.4004c.1841-.5156.3433-.7481.9068-.7481h.2451c.5146,0,.625.2208.8086.7364l2.561,7.4004c.0488.1211.0859.2441.0859.3554,0,.086-.0371.1582-.1225.1953-.1226.0489-.5513.0489-.7598.0489-.1963,0-.2695-.1094-.3432-.3438l-.7964-2.2656h-3.2837l-.7842,2.2656ZM45.9838,50.2584c-.833-2.4863-1.0781-3.2714-1.3354-4.0918-.2573.8204-.5269,1.629-1.3726,4.0918h2.708Z"/>
          <path class="cls-1" d="M50.3076,53.862h-.6006c-.1714,0-.2573-.0977-.2573-.295v-7.1543c0-.8105.2817-1.2265,1.1762-1.2265h.9556c1.0415,0,1.8135.0859,2.2793.2695.9311.3672,1.2373,1.1406,1.2373,2.1816,0,1.1875-.5147,1.9961-1.5928,2.3516l1.8623,3.2969c.0616.123.1475.2324.1475.3672,0,.0859-.0615.1601-.1353.1718-.0976.0254-.5879.0489-.7592.0489-.1719,0-.2696-.0742-.3677-.2578l-1.8501-3.4434c-.2329.0254-.4903.0254-.7476.0254h-1.0659v3.3691c0,.1836-.0981.295-.2817.295ZM51.7041,49.2428c.6743,0,1.1396-.0742,1.4584-.1972.4654-.1836.7593-.6485.7593-1.3477,0-.8457-.2817-1.1875-.7348-1.3594-.2818-.1113-.7598-.1601-1.4458-.1601h-.6988c-.3305,0-.4531.1484-.4531.4531v2.6113h1.1148Z"/>
          <path class="cls-1" d="M58.1596,53.8366c-.8086,0-1.1396-.3418-1.1396-1.1641v-6.2852c0-.8339.331-1.2011,1.164-1.2011h1.1153c1.0166,0,1.7031.0742,2.2422.2324,1.4824.4297,2.1806,1.7891,2.1806,3.9961,0,2.0215-.5019,3.4902-2.23,4.1289-.6245.2324-1.6416.293-2.3032.293h-1.0293ZM58.625,52.8073h.8579c.7104,0,1.25-.086,1.6416-.2696,1.1152-.5019,1.4091-1.6289,1.4091-3.123,0-1.4473-.2939-2.4883-1.311-2.9414-.4165-.1953-.9922-.2695-1.7886-.2695h-.8579c-.2695,0-.4165.1347-.4165.4648v5.6484c0,.3438.1348.4903.4654.4903Z"/>
          <path class="cls-1" d="M70.5454,51.4362c0,1.5683-.772,2.5605-3.0757,2.5605-.833,0-1.7276-.1113-2.4507-.3672-.1714-.0625-.2573-.1601-.2573-.3066,0-.1231.0737-.3555.1225-.502.0493-.1718.147-.2461.294-.2461.0859,0,.2573.0606.3677.0977.5883.209,1.2006.3184,1.936.3184,1.7031,0,1.8872-.795,1.8872-1.42,0-.6015-.1348-1.0175-1.5073-1.3984l-1.1519-.3184c-1.2007-.33-1.8135-1.1015-1.8135-2.3144,0-1.5566.8091-2.5117,3.0142-2.5117.6616,0,1.4585.0605,2.0586.2441.147.0488.2451.1348.2451.2949,0,.0977-.0366.2813-.0981.502-.0367.1348-.1348.209-.2452.209-.0854,0-.2324-.0371-.3427-.0625-.6494-.1348-1.25-.1836-1.7032-.1836-1.4458,0-1.7524.5996-1.7524,1.3965,0,.5879.1719,1.0293,1.3848,1.3847l1.0781.3067c1.4829.4297,2.0098.9433,2.0098,2.3164Z"/>
          <path class="cls-1" d="M73.854,53.862h-.6128c-.1836,0-.2696-.1114-.2696-.295v-7.3515h-1.6562c-.1841,0-.2818-.0606-.2818-.2442v-.5273c0-.209.1104-.2578.2818-.2578h4.4765c.1719,0,.2813.0488.2813.2578v.5273c0,.1836-.0977.2442-.2813.2442h-1.6684v7.3515c0,.1973-.0982.295-.2695.295Z"/>
          <path class="cls-1" d="M78.1181,53.862h-.6123c-.1709,0-.2568-.0977-.2568-.295v-8.1113c0-.1719.0732-.293.2695-.293h.625c.1953,0,.2441.1094.2441.293v8.1113c0,.1719-.0859.295-.2695.295Z"/>
          <path class="cls-1" d="M83.7294,53.0045c.8946,0,1.336-.1113,1.8623-.2461.1709-.0488.3184-.0859.4043-.0859.086,0,.1592.0371.2081.1719.0488.1601.0976.3672.0976.5019,0,.1114-.0723.209-.2812.2832-.7715.2559-1.5801.3672-2.5.3672-2.1436,0-3.3692-1.0176-3.3692-4.3496,0-3.2109.8574-4.6191,3.6514-4.6191.7842,0,1.5439.0605,2.0342.1836.208.0488.2939.1465.2939.2812,0,.1094-.0488.4043-.1221.5879-.0371.0977-.123.1348-.2089.1348-.0977,0-.2325-.0235-.4043-.0606-.3428-.0742-.8204-.1347-1.5557-.1347-2.1807,0-2.5127,1.3593-2.5127,3.4433,0,2.1074.3555,3.541,2.4023,3.541Z"/>
          <path class="cls-1" d="M88.4209,53.862h-.6133c-.1719,0-.2578-.0977-.2578-.295v-8.1113c0-.1719.0742-.293.2695-.293h.625c.1963,0,.2461.1094.2461.293v3.3828h.9433c.2813,0,.4278-.0488.5508-.2207l2.2417-3.2226c.0977-.1465.209-.2325.3809-.2325.2075,0,.4907,0,.6489.0235.1465.0117.1836.0859.1836.1972,0,.084-.0605.2071-.123.293-1.8985,2.7442-2.254,3.1856-2.584,3.627.3427.4648.7959,1.1035,2.8047,3.9941.0742.1113.1601.2461.1601.3438,0,.0976-.0742.1835-.1836.1953-.2324.0254-.5156.0254-.7715.0254-.186,0-.2583-.086-.3559-.2207l-2.4995-3.5782c-.1231-.1836-.2578-.209-.4785-.209h-.918v3.7129c0,.1719-.086.295-.2695.295Z"/>
          <path class="cls-1" d="M98.538,53.862h-.5996c-.1718,0-.2578-.0977-.2578-.295v-7.1543c0-.8105.2832-1.2265,1.1778-1.2265h.955c1.041,0,1.8125.0859,2.2793.2695.9297.3672,1.2364,1.1406,1.2364,2.1816,0,1.1875-.5137,1.9961-1.5918,2.3516l1.8613,3.2969c.0625.123.1484.2324.1484.3672,0,.0859-.0625.1601-.1347.1718-.0997.0254-.5899.0489-.7598.0489-.1719,0-.2695-.0742-.3691-.2578l-1.8497-3.4434c-.2324.0254-.4902.0254-.748.0254h-1.0645v3.3691c0,.1836-.0976.295-.2832.295ZM99.9365,49.2428c.6738,0,1.1386-.0742,1.457-.1972.4668-.1836.7598-.6485.7598-1.3477,0-.8457-.2813-1.1875-.7344-1.3594-.2832-.1113-.7598-.1601-1.4473-.1601h-.6972c-.3321,0-.4532.1484-.4532.4531v2.6113h1.1153Z"/>
          <path class="cls-1" d="M108.1787,53.9967c-2.375,0-3.5157-.9316-3.5157-4.5332,0-3.664,1.545-4.4355,3.6153-4.4355,2.3633,0,3.5156.6484,3.5156,4.4218,0,3.5899-1.1523,4.5469-3.6152,4.5469ZM108.2412,46.0202c-1.544,0-2.4004.5879-2.4004,3.4433,0,3.0137.8193,3.541,2.3633,3.541,1.5058,0,2.4003-.4668,2.4003-3.5293,0-2.9414-.6484-3.455-2.3632-3.455Z"/>
          <path class="cls-1" d="M114.8427,53.8366c-.8086,0-1.164-.3184-1.164-1.1758v-6.2617c0-.7598.2812-1.2129,1.1386-1.2129h1.3614c.3789,0,.9668.0371,1.2851.0742,1.3242.1348,1.9238.8086,1.9238,2.0703,0,1.0781-.3925,1.6797-1.2871,1.9727.9942.2324,1.5567.8203,1.5567,2.0214,0,1.0293-.3301,1.875-1.25,2.2422-.4649.1836-1.25.2696-2.2656.2696h-1.2989ZM116.3974,48.8756c.5645,0,.957-.0254,1.1777-.1367.3907-.1699.6602-.6113.6602-1.2246,0-.8574-.3906-1.1016-.832-1.2617-.2207-.0742-.6621-.0977-1.1035-.0977h-1.0899c-.2695,0-.3926.1348-.3926.4532v2.2675h1.5801ZM114.8173,52.3541c0,.3438.1348.4903.4786.4903h1.0781c.6855,0,1.1269-.0606,1.373-.1582.4395-.1856.7461-.6016.7461-1.4473,0-.6738-.3183-1.0527-.7715-1.25-.3066-.1348-.7109-.1582-1.2871-.1582h-1.6172v2.5234Z"/>
          <path class="cls-1" d="M124.4345,53.9967c-2.3769,0-3.5176-.9316-3.5176-4.5332,0-3.664,1.545-4.4355,3.6153-4.4355,2.3652,0,3.5156.6484,3.5156,4.4218,0,3.5899-1.1504,4.5469-3.6133,4.5469ZM124.4951,46.0202c-1.543,0-2.4004.5879-2.4004,3.4433,0,3.0137.8203,3.541,2.3633,3.541,1.5078,0,2.4023-.4668,2.4023-3.5293,0-2.9414-.6504-3.455-2.3652-3.455Z"/>
          <path class="cls-1" d="M131.4306,53.862h-.6133c-.1836,0-.2695-.1114-.2695-.295v-7.3515h-1.6562c-.1836,0-.2813-.0606-.2813-.2442v-.5273c0-.209.1113-.2578.2813-.2578h4.4765c.1719,0,.2813.0488.2813.2578v.5273c0,.1836-.0977.2442-.2813.2442h-1.668v7.3515c0,.1973-.0976.295-.2695.295Z"/>
          <path class="cls-1" d="M135.6943,53.862h-.6113c-.1719,0-.2579-.0977-.2579-.295v-8.1113c0-.1719.0723-.293.2696-.293h.625c.1953,0,.2441.1094.2441.293v8.1113c0,.1719-.0859.295-.2695.295Z"/>
          <path class="cls-1" d="M141.3056,53.0045c.8945,0,1.336-.1113,1.8633-.2461.1719-.0488.3184-.0859.4043-.0859s.1582.0371.207.1719c.0508.1601.0996.3672.0996.5019,0,.1114-.0742.209-.2832.2832-.7715.2559-1.58.3672-2.498.3672-2.1445,0-3.3711-1.0176-3.3711-4.3496,0-3.2109.8574-4.6191,3.6523-4.6191.7832,0,1.543.0605,2.0332.1836.209.0488.295.1465.295.2812,0,.1094-.0489.4043-.1231.5879-.0371.0977-.123.1348-.209.1348-.0976,0-.2324-.0235-.4043-.0606-.3418-.0742-.8203-.1347-1.5547-.1347-2.1816,0-2.5117,1.3593-2.5117,3.4433,0,2.1074.3555,3.541,2.4004,3.541Z"/>
          <path class="cls-1" d="M150.4697,51.4362c0,1.5683-.7715,2.5605-3.0762,2.5605-.832,0-1.7266-.1113-2.4492-.3672-.1719-.0625-.2578-.1601-.2578-.3066,0-.1231.0722-.3555.123-.502.0489-.1718.1465-.2461.293-.2461.0859,0,.2578.0606.3672.0977.5879.209,1.2012.3184,1.9375.3184,1.7031,0,1.8867-.795,1.8867-1.42,0-.6015-.1348-1.0175-1.5078-1.3984l-1.1524-.3184c-1.1992-.33-1.8125-1.1015-1.8125-2.3144,0-1.5566.8086-2.5117,3.0137-2.5117.6621,0,1.459.0605,2.0586.2441.1465.0488.2461.1348.2461.2949,0,.0977-.0371.2813-.0996.502-.0352.1348-.1348.209-.2441.209-.086,0-.2325-.0371-.3438-.0625-.6484-.1348-1.25-.1836-1.7031-.1836-1.4453,0-1.752.5996-1.752,1.3965,0,.5879.1719,1.0293,1.3848,1.3847l1.0781.3067c1.4824.4297,2.0098.9433,2.0098,2.3164Z"/>
        </g>
      </g>
    </g>
  </g>
</svg>