<?xml version="1.0" encoding="UTF-8"?>
<svg id="Layer_2" data-name="Layer 2" xmlns="http://www.w3.org/2000/svg" width="1025.0101" height="253.5077" viewBox="0 0 1025.0101 253.5077">
  <defs>
    <style>
      .cls-1 {
        fill: #1b3665;
      }
    </style>
  </defs>
  <g id="Ebene_1" data-name="Ebene 1">
    <path class="cls-1" d="M224.4489,253.5077h157.4756c5.2735,0,9.5485-4.275,9.5485-9.5485V9.5485c0-5.2735-4.275-9.5485-9.5485-9.5485h-157.4756c-5.2735,0-9.5485,4.275-9.5485,9.5485v234.4106c0,5.2735,4.275,9.5485,9.5485,9.5485ZM262.2444,37.7935h56.0029c5.2735,0,9.5485,4.275,9.5485,9.5485v28.1388c0,4.3195,1.7603,8.4525,4.8748,11.4454l16.5547,15.9085c3.1145,2.993,4.8748,7.1259,4.8748,11.4454v91.5796c0,5.2735-4.275,9.5485-9.5485,9.5485h-82.3073c-5.2735,0-9.5485-4.275-9.5485-9.5485V47.342c0-5.2735,4.275-9.5485,9.5485-9.5485Z"/>
    <path class="cls-1" d="M439.7996,37.7935h44.5796c5.2735,0,9.5485,4.275,9.5485,9.5485v196.6171c0,5.2735,4.275,9.5485,9.5485,9.5485h44.1752c5.2735,0,9.5485-4.275,9.5485-9.5485V114.0894c0-4.2066-1.6724-8.2406-4.6488-11.2133l-16.0114-15.9916c-2.9764-2.9727-4.6488-7.0067-4.6488-11.2133v-28.3291c0-5.2735,4.275-9.5485,9.5485-9.5485h56.4261c5.2735,0,9.5485-4.275,9.5485-9.5485V9.9278c0-5.2735-4.275-9.5485-9.5485-9.5485h-158.0662c-5.2735,0-9.5485,4.275-9.5485,9.5485v18.3172c0,5.2735,4.275,9.5485,9.5485,9.5485Z"/>
    <path class="cls-1" d="M654.9418,253.5077h145.411c5.2735,0,9.5485-4.275,9.5485-9.5485v-19.1426c0-5.2735-4.275-9.5485-9.5485-9.5485h-82.1386c-5.2735,0-9.5485-4.275-9.5485-9.5485v-56.9047c0-5.2735,4.275-9.5485,9.5485-9.5485h56.8281c5.2735,0,9.5485-4.275,9.5485-9.5485v-19.1092c0-5.2735-4.275-9.5485-9.5485-9.5485h-82.137c-5.2735,0-9.5485-4.275-9.5485-9.5485v-43.6201c0-5.2735,4.275-9.5485,9.5485-9.5485h107.4476c5.2735,0,9.5485-4.275,9.5485-9.5485V9.9278c0-5.2735-4.275-9.5485-9.5485-9.5485h-145.411c-5.2735,0-9.5485,4.275-9.5485,9.5485v234.0314c0,5.2735,4.275,9.5485,9.5485,9.5485Z"/>
    <path class="cls-1" d="M9.5485,139.2893h82.0725c5.2735,0,9.5485,4.275,9.5485,9.5485v56.1918c0,5.2735-4.275,9.5485-9.5485,9.5485h-44.3969c-5.2735,0-9.5485-4.275-9.5485-9.5485v-5.8916c0-5.2735-4.275-9.5485-9.5485-9.5485H9.5485c-5.2735,0-9.5485,4.275-9.5485,9.5485v44.2154c0,5.2735,4.275,9.5485,9.5485,9.5485h145.385c5.2735,0,9.5485-4.275,9.5485-9.5485V110.6604c0-5.2735-4.275-9.5485-9.5485-9.5485H47.173c-5.2735,0-9.5485-4.275-9.5485-9.5485v-43.9793c0-5.2735,4.275-9.5485,9.5485-9.5485h69.8231c5.2735,0,9.5485,4.275,9.5485,9.5485v6.1098c0,5.2735,4.275,9.5485,9.5485,9.5485h18.8403c5.2735,0,9.5485-4.275,9.5485-9.5485V9.5485c0-5.2735-4.275-9.5485-9.5485-9.5485H9.5485C4.275,0,0,4.275,0,9.5485v120.1923c0,5.2735,4.275,9.5485,9.5485,9.5485Z"/>
    <path class="cls-1" d="M1025.0101,54.1054V9.5485c0-5.2735-4.275-9.5485-9.5485-9.5485h-145.411c-5.2735,0-9.5485,4.275-9.5485,9.5485v234.4106c0,5.2735,4.275,9.5485,9.5485,9.5485h145.411c5.2735,0,9.5485-4.275,9.5485-9.5485v-44.6937c0-5.2735-4.275-9.5485-9.5485-9.5485h-18.8663c-5.2735,0-9.5485,4.275-9.5485,9.5485v6.5943c0,5.2735-4.275,9.5485-9.5485,9.5485h-44.1752c-5.2735,0-9.5485-4.275-9.5485-9.5485v-91.8953c0-4.2214-1.6783-8.2696-4.6651-11.2528l-15.9787-15.959c-2.9868-2.9831-4.6651-7.0314-4.6651-11.2528v-27.608c0-5.2735,4.275-9.5485,9.5485-9.5485h69.4842c5.2735,0,9.5485,4.275,9.5485,9.5485v6.2134c0,5.2735,4.275,9.5485,9.5485,9.5485h18.8663c5.2735,0,9.5485-4.275,9.5485-9.5485Z"/>
  </g>
</svg>